<?xml version="1.0" standalone="no"?>
<!DOCTYPE svg PUBLIC "-//W3C//DTD SVG 20010904//EN"
 "http://www.w3.org/TR/2001/REC-SVG-20010904/DTD/svg10.dtd">
<svg version="1.0" xmlns="http://www.w3.org/2000/svg"
 width="200.000000pt" height="200.000000pt" viewBox="0 0 200.000000 200.000000"
 preserveAspectRatio="xMidYMid meet">
<metadata>
Created by potrace 1.14, written by Peter Selinger 2001-2017
</metadata>
<g transform="translate(0.000000,200.000000) scale(0.100000,-0.100000)"
fill="#000000" stroke="none">
<path d="M900 1931 c-5 -11 -10 -27 -10 -36 0 -13 -4 -14 -20 -5 -11 6 -20 20
-20 31 0 12 -4 17 -11 13 -6 -3 -8 -17 -5 -30 5 -19 2 -24 -13 -24 -11 0 -23
9 -26 20 -3 11 -11 20 -17 20 -6 0 -7 -7 -3 -17 25 -60 12 -71 -28 -24 -33 40
-44 27 -12 -15 14 -18 25 -37 25 -43 0 -17 12 -13 41 15 37 36 76 35 106 -2
28 -36 43 -23 19 17 -13 22 -16 40 -12 65 8 38 2 44 -14 15z"/>
<path d="M1091 1912 c-1 -23 -8 -53 -17 -66 -9 -14 -11 -27 -6 -30 6 -3 17 5
26 19 21 32 73 34 104 5 27 -25 30 -25 53 3 28 33 25 56 -4 29 -32 -30 -40
-28 -32 11 5 29 4 30 -8 15 -19 -24 -37 -23 -37 2 0 11 -4 20 -10 20 -5 0 -10
-7 -10 -15 0 -8 -4 -15 -10 -15 -5 0 -13 0 -17 0 -5 0 -13 15 -20 33 l-11 32
-1 -43z"/>
<path d="M654 1862 c-85 -62 -164 -198 -218 -372 -27 -90 -71 -254 -131 -485
-50 -196 -74 -267 -88 -258 -45 26 -132 101 -163 141 -55 68 -57 70 -49 42 4
-14 19 -39 32 -57 27 -35 156 -143 171 -143 5 0 15 -7 22 -15 7 -8 19 -15 27
-15 12 0 13 3 3 15 -9 11 -8 27 9 77 11 35 61 217 110 406 95 359 128 449 209
570 23 33 58 74 79 91 47 39 39 40 -13 3z"/>
<path d="M1320 1867 c0 -4 20 -33 44 -64 98 -129 136 -226 230 -573 30 -113
73 -261 95 -330 23 -69 41 -135 41 -147 0 -13 2 -23 5 -23 14 0 176 105 215
139 54 47 49 64 -6 20 -49 -40 -171 -119 -183 -119 -10 0 -12 7 -56 155 -15
50 -38 125 -51 167 -13 43 -35 124 -49 180 -61 239 -112 375 -179 476 -43 64
-106 135 -106 119z"/>
<path d="M848 1695 c-44 -24 -61 -87 -56 -209 3 -86 7 -110 24 -133 39 -51 95
-47 138 10 17 22 22 47 25 113 5 121 -5 171 -39 206 -32 31 -52 34 -92 13z
m86 -38 c17 -23 22 -46 25 -119 2 -51 -2 -108 -8 -129 -13 -44 -53 -79 -80
-72 -39 10 -52 38 -58 125 -8 112 2 174 33 205 30 30 60 27 88 -10z"/>
<path d="M867 1523 c-4 -3 -7 -17 -7 -30 0 -16 6 -23 19 -23 19 0 31 18 31 46
0 14 -31 20 -43 7z"/>
<path d="M1101 1684 c-36 -30 -51 -77 -51 -159 1 -122 27 -182 88 -200 31 -9
77 39 92 96 16 58 13 181 -4 224 -13 30 -58 65 -85 65 -5 0 -23 -12 -40 -26z
m97 -32 c27 -41 24 -215 -3 -262 -25 -41 -62 -51 -88 -22 -37 40 -47 208 -17
273 24 52 78 57 108 11z"/>
<path d="M1120 1514 c-11 -12 -10 -18 3 -32 16 -15 18 -15 33 0 19 18 12 48
-9 48 -8 0 -20 -7 -27 -16z"/>
<path d="M1026 1223 c-11 -11 -6 -23 9 -23 8 0 15 4 15 9 0 13 -16 22 -24 14z"/>
<path d="M967 1214 c-8 -8 1 -24 14 -24 5 0 9 7 9 15 0 15 -12 20 -23 9z"/>
<path d="M1402 1161 c-62 -109 -259 -191 -467 -193 -151 -2 -264 41 -333 128
-27 34 -42 43 -42 24 0 -18 82 -100 124 -125 162 -94 498 -60 658 67 44 35 98
103 98 125 0 24 -16 13 -38 -26z"/>
<path d="M1837 506 c-25 -20 -26 -24 -13 -36 15 -11 20 -7 17 13 0 4 3 7 9 7
5 0 14 9 20 20 14 26 2 25 -33 -4z"/>
</g>
</svg>
