<svg width="322" height="94" viewBox="0 0 322 94" fill="none" xmlns="http://www.w3.org/2000/svg">
<path d="M59.909 17.4252C55.2833 13.6079 48.9511 11.7217 40.8674 11.7217H20.748V14.551H40.5082C47.3793 14.551 53.5768 15.9432 57.3941 19.2664C61.2114 22.5897 64.0407 27.4399 64.0407 33.4578C64.0407 39.296 61.5257 43.5624 57.6186 46.8408C53.7115 50.1192 46.6158 51.5563 39.5651 51.5563H16.8858V54.3856H39.7447C48.2326 54.3856 54.8791 52.5443 59.6844 48.8617C64.4448 45.1791 66.8699 39.9697 66.8699 33.2782C66.8699 26.4519 64.5347 21.1975 59.909 17.4252Z" fill="#1C1E1D"/>
<path d="M58.2024 21.4669C55.3283 19.2664 52.0499 17.5149 42.7087 17.5149H27.1701V20.2544C27.1701 20.2544 34.131 20.1645 42.3495 20.2544C50.2984 20.3442 53.2175 21.2424 55.9121 23.2184C59.3252 25.7333 61.4808 28.877 61.4808 33.2332C61.4808 37.4546 59.3252 40.4187 55.8672 42.9785C52.3642 45.5832 46.9751 45.5832 44.7746 45.6731C43.9662 45.6731 33.2329 45.6731 33.2329 45.6731V48.4125C33.2329 48.4125 38.5322 48.5023 41.8554 48.4125C49.4002 48.2329 53.8912 47.7838 58.0677 44.685C61.9748 41.7659 64.0407 37.9486 64.0407 33.0984C64.0407 26.7213 60.8072 23.5327 58.2024 21.4669Z" fill="#1C1E1D"/>
<path d="M56.8103 25.1046C54.6546 23.7573 52.7684 22.8591 43.8315 22.8591H32.649V24.6555H43.5171C51.4211 24.6555 54.3852 26.0477 55.3283 26.6315C57.1246 27.7093 59.4599 29.5057 59.4599 33.0985C59.4599 35.3888 58.1126 38.3079 56.0917 39.4307C54.2504 40.4636 50.8822 41.4067 44.9991 41.4067H8.53271V43.2031H45.0889C52.2295 43.2031 54.6546 42.3947 57.1695 41.0025C59.6845 39.6103 61.391 36.7361 61.391 33.0985C61.391 28.9668 59.1006 26.5417 56.8103 25.1046Z" fill="#1C1E1D"/>
<path d="M63.906 44.9994C59.2803 41.1821 52.9481 39.2959 44.8644 39.2959H31.3916V42.1252H44.4602C51.3313 42.1252 57.5288 43.5623 61.3461 46.8407C65.1634 50.119 68.0376 55.0142 68.0376 61.032C68.0376 66.8702 65.5676 71.1366 61.6156 74.415C57.6636 77.6934 50.6128 79.1305 43.562 79.1305H20.8828V81.9598H43.7417C52.2295 81.9598 58.8761 80.1185 63.6814 76.4359C68.4867 72.7534 70.8669 67.5439 70.8669 60.8524C70.822 54.0711 68.5316 48.8167 63.906 44.9994Z" fill="#1C1E1D"/>
<path d="M62.1995 49.0414C59.3253 46.8857 56.0469 45.0894 46.7058 45.0894H25.5984V47.8288C25.5984 47.8288 38.1281 47.739 46.3465 47.8288C54.2955 47.9186 57.2146 48.8168 59.9091 50.7928C63.3222 53.3078 65.4779 56.4514 65.4779 60.8076C65.4779 65.0291 63.3222 67.9931 59.8642 70.553C56.3613 73.1577 50.9722 73.1577 48.7716 73.2475C47.9632 73.2475 37.2299 73.2475 37.2299 73.2475V75.987C37.2299 75.987 42.5741 76.0768 45.8525 75.987C53.3973 75.8074 57.8882 75.3583 62.0648 72.2595C65.9719 69.3404 68.0377 65.5231 68.0377 60.6729C68.0377 54.3407 64.8492 51.1072 62.1995 49.0414Z" fill="#1C1E1D"/>
<path d="M30.0892 58.3824H49.8943V56.8555H30.0892V58.3824Z" fill="#1C1E1D"/>
<path d="M38.2627 63.7267H49.7595V62.4243H38.2627V63.7267Z" fill="#1C1E1D"/>
<path d="M20.8828 58.3824H26.721V56.8555H20.8828V58.3824Z" fill="#1C1E1D"/>
<path d="M17.2003 63.8165H35.0293V62.2896H17.2003V63.8165Z" fill="#1C1E1D"/>
<path d="M21.6013 24.5206H28.5623V23.2632H21.6013V24.5206Z" fill="#1C1E1D"/>
<path d="M16.7961 34.7603H32.6491V33.3232H16.7961V34.7603Z" fill="#1C1E1D"/>
<path d="M17.2003 75.8071H33.9515V74.0107H17.2003V75.8071Z" fill="#1C1E1D"/>
<path d="M13.0686 81.78H17.2452V79.1304H13.0686V81.78Z" fill="#1C1E1D"/>
<path d="M23.4875 30.2691H49.8044V28.832H23.4875V30.2691Z" fill="#1C1E1D"/>
<path d="M36.646 34.7603H49.3104V33.3232H36.646V34.7603Z" fill="#1C1E1D"/>
<path d="M60.8073 52.9481C58.6517 51.6457 56.7655 50.7476 47.8285 50.7476H33.6372V52.499H47.5591C55.4631 52.499 58.472 53.8463 59.3702 54.3852C61.1217 55.4181 63.5019 57.1247 63.5019 60.6276C63.5019 62.8731 62.1546 65.6575 60.1337 66.7353C58.2924 67.7233 54.9242 68.6215 49.0411 68.6215H12.5298V70.3729H49.086C56.2266 70.3729 58.6517 69.6095 61.1666 68.2622C63.6815 66.9149 65.3432 64.1755 65.3432 60.6276C65.3881 56.7205 63.0977 54.3852 60.8073 52.9481Z" fill="#1C1E1D"/>
<path d="M98.2616 49.0412V65.0738H107.019C110.791 65.0738 113.755 64.3553 115.821 62.9182C117.842 61.6158 119.01 59.3704 118.965 56.9453C118.965 51.6909 114.519 49.0412 105.672 49.0412H98.2616ZM98.2616 29.9547V44.3257H104.863C108.411 44.3257 111.151 43.6521 113.172 42.2599C115.148 41.0024 116.315 38.757 116.225 36.4217C116.225 32.1104 112.722 29.9098 105.672 29.9098L98.2616 29.9547ZM91.7947 69.7893V25.2393H107.468C112.228 25.2393 116.001 26.1824 118.785 28.0685C121.57 29.9547 122.962 32.4248 122.962 35.4337C123.007 37.8588 122.108 40.239 120.447 42.0354C118.74 43.9216 116.45 45.2239 113.486 46.0323V46.167C117.213 46.5263 120.177 47.649 122.378 49.5801C124.579 51.4214 125.791 54.1609 125.701 57.0351C125.701 60.8524 123.995 63.9062 120.626 66.2864C117.258 68.6666 112.992 69.8342 107.827 69.8342H91.7947V69.7893Z" fill="#1C1E1D"/>
<path d="M132.887 69.7891H139.174V37.9933H132.887V69.7891ZM136.075 29.8647C135.042 29.9096 134.009 29.5503 133.201 28.9216C132.438 28.3827 131.989 27.4845 132.033 26.5863C132.033 25.6432 132.483 24.745 133.201 24.2061C134.009 23.5774 135.042 23.2181 136.075 23.263C137.153 23.2181 138.186 23.5774 138.994 24.2061C140.297 25.1492 140.566 26.9456 139.668 28.248C139.488 28.5174 139.264 28.742 138.994 28.9216C138.186 29.5953 137.153 29.9096 136.075 29.8647Z" fill="#1C1E1D"/>
<path d="M166.973 69.4749C165.491 70.1485 163.515 70.4629 161.09 70.4629C154.219 70.4629 150.761 67.3642 150.761 61.1218V42.3048H144.024V37.9485H150.761V30.1792L157.048 28.5176V37.9485H166.928V42.3048H157.048V60.2236C157.048 62.3343 157.497 63.8612 158.395 64.8043C159.293 65.7474 160.775 66.1516 162.841 66.1516C164.278 66.1965 165.715 65.8372 166.928 65.0738L166.973 69.4749Z" fill="#1C1E1D"/>
<path d="M224.143 69.7893H218.259V42.3048C218.304 39.6552 218.439 36.9606 218.753 34.311H218.619C218.259 35.6582 217.721 37.0055 217.092 38.263L199.802 69.7444H196.883L179.637 38.4875C178.964 37.1402 178.47 35.7481 178.111 34.266H177.976C178.2 36.9157 178.29 39.6103 178.245 42.3048V69.7444H172.542V28.7871H180.401L195.94 57.3495C196.838 58.9213 197.646 60.5829 198.275 62.2895H198.499C199.532 60.044 200.341 58.3824 200.924 57.2596L216.777 28.7871H224.187V69.7893" fill="#1C1E1D"/>
<path d="M256.118 53.6668L246.642 54.7446C243.723 55.059 241.522 55.6428 240.04 56.4961C238.558 57.3494 237.795 58.8314 237.795 60.9421C237.795 62.469 238.558 63.9061 239.861 64.7594C241.208 65.7474 243.049 66.2414 245.34 66.2414C248.483 66.2414 251.043 65.3432 253.064 63.5918C255.04 61.9301 256.163 59.4601 256.118 56.8554V53.6668ZM262.405 69.7893H256.118V64.8043H255.983C253.244 68.6216 249.202 70.5078 243.903 70.5078C239.995 70.5078 236.942 69.6545 234.696 67.9929C232.541 66.466 231.328 63.951 231.373 61.3014C231.373 55.3734 235.684 51.9153 244.352 50.9273L256.118 49.5801C256.118 44.1909 253.423 41.4964 248.034 41.4964C243.454 41.4515 239.007 42.7987 235.235 45.4035V40.194C239.097 38.218 243.543 37.23 248.573 37.23C257.825 37.23 262.405 41.182 262.405 49.086V69.7893Z" fill="#1C1E1D"/>
<path d="M291.596 43.1132C290.474 42.4395 288.902 42.0803 286.836 42.0803C284.231 42.0354 281.761 43.1581 280.1 45.179C278.303 47.2449 277.405 50.0292 277.405 53.5771V69.7893H271.118V37.9935H277.405V44.5503H277.54C278.348 42.4396 279.785 40.5983 281.671 39.2959C283.468 38.0384 285.623 37.4097 287.869 37.4097C289.126 37.3648 290.429 37.4995 291.641 37.8588L291.596 43.1132Z" fill="#1C1E1D"/>
<path d="M313.512 69.4749C312.03 70.1485 310.054 70.4629 307.629 70.4629C300.758 70.4629 297.3 67.3642 297.3 61.1218V42.3048H290.563V37.9485H297.3V30.1792L303.587 28.5176V37.9485H313.467V42.3048H303.587V60.2236C303.587 62.3343 304.036 63.8612 304.934 64.8043C305.833 65.7474 307.315 66.1516 309.381 66.1516C310.818 66.1965 312.255 65.8372 313.467 65.0738L313.512 69.4749Z" fill="#1C1E1D"/>
</svg>
